<svg version="1.2" xmlns="http://www.w3.org/2000/svg" viewBox="5 -5 80 90" fill="#333">
	<path class="s0" d="m30.91 43.51l-16.9 19.85c-5.46 6.42-4.69 16.05 1.73 21.51l25.19-29.59z"/>
	<path class="s0" d="m74.11 85c6.42-5.46 7.19-15.09 1.73-21.51l-20.95-24.61 8.65-10.16c6.18 1.61 13.01-0.24 17.42-5.42 2.75-3.23 4.1-7.19 4.1-11.12 0-4.86-2.06-9.69-6.04-13.08-7.22-6.15-18.06-5.28-24.2 1.94-2.75 3.23-4.1 7.18-4.1 11.12 0 2.22 0.49 4.43 1.34 6.5l-7.19 8.45-6.98-8.2c0.89-2.07 1.39-4.35 1.39-6.74 0-9.48-7.69-17.17-17.17-17.17-9.48 0-17.17 7.69-17.17 17.17 0 9.48 7.69 17.16 17.17 17.16 1.44 0 2.81-0.22 4.14-0.55zm-23.39-46.13c0 3.16-2.56 5.72-5.72 5.72-3.16 0-5.72-2.56-5.72-5.72 0-3.16 2.56-5.73 5.72-5.73 3.16 0 5.72 2.57 5.72 5.73zm9.91-32.89c1.65-1.94 3.96-3.12 6.5-3.32 2.53-0.21 5 0.59 6.94 2.24 2.13 1.82 3.36 4.47 3.36 7.27 0 1.6-0.4 3.97-2.28 6.17-1.65 1.94-3.96 3.12-6.5 3.33-2.54 0.2-5-0.6-6.94-2.25-2.14-1.81-3.36-4.46-3.36-7.27 0-1.59 0.4-3.96 2.28-6.17zm-48.06 6.18c0-5.26 4.28-9.53 9.54-9.53 5.26 0 9.54 4.27 9.54 9.53 0 5.26-4.28 9.54-9.54 9.54-5.26 0-9.54-4.28-9.54-9.54z"/>
</svg>