<svg xmlns="http://www.w3.org/2000/svg" version="1.1" viewBox="5 10 90 80" fill="#333">
  <path d="M53.505,64.091l19.853,16.9c6.417,5.463,16.048,4.689,21.511-1.728L65.275,54.071L53.505,64.091z"/>
  <path d="M95,20.891c-5.463-6.417-15.094-7.191-21.511-1.728l-24.61,20.95l-10.163-8.652c1.617-6.178-0.232-13.006-5.42-17.422  c-3.231-2.75-7.185-4.095-11.119-4.095c-4.858,0-9.685,2.051-13.08,6.04C2.95,23.202,3.82,34.037,11.039,40.182  c3.231,2.75,7.185,4.095,11.119,4.095c2.225,0,4.428-0.483,6.505-1.333l8.443,7.188l-8.193,6.974  c-2.072-0.887-4.351-1.384-6.748-1.384C12.686,55.722,5,63.408,5,72.889s7.686,17.167,17.167,17.167s17.167-7.686,17.167-17.167  c0-1.434-0.227-2.805-0.559-4.137L95,20.891z M48.872,44.276c3.16,0,5.722,2.562,5.722,5.722c0,3.16-2.562,5.722-5.722,5.722  c-3.16,0-5.722-2.562-5.722-5.722C43.15,46.838,45.712,44.276,48.872,44.276z M15.985,34.372c-1.94-1.651-3.12-3.959-3.324-6.498  s0.593-5.006,2.244-6.946c1.815-2.132,4.465-3.355,7.271-3.355c1.597,0,3.964,0.395,6.173,2.275c1.94,1.651,3.12,3.959,3.324,6.498  c0.204,2.539-0.593,5.006-2.244,6.946c-1.815,2.133-4.465,3.356-7.27,3.356C20.562,36.648,18.194,36.253,15.985,34.372z   M22.168,82.427c-5.259,0-9.537-4.279-9.537-9.537c0-5.259,4.278-9.537,9.537-9.537c5.259,0,9.537,4.278,9.537,9.537  C31.705,78.148,27.426,82.427,22.168,82.427z"/>
</svg>